<?xml version="1.0" encoding="UTF-8"?>
<svg id="Layer_2" data-name="Layer 2" xmlns="http://www.w3.org/2000/svg" xmlns:xlink="http://www.w3.org/1999/xlink" viewBox="0 0 676.25 408.43">
  <defs>
    <style>
      .cls-1 {
        fill: url(#linear-gradient);
      }

      .cls-1, .cls-2, .cls-3, .cls-4, .cls-5, .cls-6, .cls-7, .cls-8, .cls-9, .cls-10, .cls-11 {
        stroke-width: 0px;
      }

      .cls-1, .cls-3 {
        fill-rule: evenodd;
      }

      .cls-2 {
        fill: rgba(52, 52, 35, .73);
      }

      .cls-3 {
        fill: url(#radial-gradient);
      }

      .cls-4 {
        fill: url(#radial-gradient-2);
      }

      .cls-5 {
        fill: url(#radial-gradient-3);
      }

      .cls-6 {
        fill: url(#radial-gradient-4);
      }

      .cls-7 {
        fill: url(#radial-gradient-5);
      }

      .cls-8 {
        fill: #ada293;
      }

      .cls-9 {
        fill: #ada393;
      }

      .cls-10 {
        fill: #d8d4c1;
      }

      .cls-11 {
        fill: #e7c278;
      }
    </style>
    <radialGradient id="radial-gradient" cx="672.13" cy="423.22" fx="672.13" fy="423.22" r="128.34" gradientTransform="translate(-699.31 -110.84) rotate(30.76) scale(1.59 -.46)" gradientUnits="userSpaceOnUse">
      <stop offset="0" stop-color="#ac9877" stop-opacity="0"/>
      <stop offset="1" stop-color="#ac9877"/>
    </radialGradient>
    <radialGradient id="radial-gradient-2" cx="734.04" cy="636.33" fx="734.04" fy="636.33" r="115.33" gradientTransform="translate(-714.89 -198.12) rotate(29.71) scale(1.53 -.48)" gradientUnits="userSpaceOnUse">
      <stop offset="0" stop-color="#b29b7a"/>
      <stop offset=".75" stop-color="#b29b7a"/>
      <stop offset="1" stop-color="#b29b7a" stop-opacity="0"/>
    </radialGradient>
    <linearGradient id="linear-gradient" x1="421.28" y1="1436.56" x2="404.98" y2="1408.22" gradientTransform="translate(0 1508.15) scale(1 -1)" gradientUnits="userSpaceOnUse">
      <stop offset="0" stop-color="#797265"/>
      <stop offset="1" stop-color="#797265" stop-opacity="0"/>
    </linearGradient>
    <radialGradient id="radial-gradient-3" cx="698.22" cy="-118.85" fx="698.22" fy="-118.85" r="134.42" gradientTransform="translate(-677.49 -332.99) rotate(30.42) scale(1.65 -.2)" gradientUnits="userSpaceOnUse">
      <stop offset="0" stop-color="#ccb986" stop-opacity="0"/>
      <stop offset=".5" stop-color="#c3ad70"/>
      <stop offset="1" stop-color="#ccb986" stop-opacity="0"/>
    </radialGradient>
    <radialGradient id="radial-gradient-4" cx="646.53" cy="134.26" fx="646.53" fy="134.26" r="145.3" gradientTransform="translate(-466.35 -254.58) rotate(28.83) scale(1.44 -.2)" gradientUnits="userSpaceOnUse">
      <stop offset="0" stop-color="#c4a361" stop-opacity="0"/>
      <stop offset=".5" stop-color="#c4a361"/>
      <stop offset="1" stop-color="#c4a361" stop-opacity="0"/>
    </radialGradient>
    <radialGradient id="radial-gradient-5" cx="963.21" cy="343.56" fx="963.21" fy="343.56" r="184.26" gradientTransform="translate(-581.34 8.01) rotate(30) scale(.93 -.85)" gradientUnits="userSpaceOnUse">
      <stop offset="0" stop-color="#fff" stop-opacity="0"/>
      <stop offset=".5" stop-color="#3f3f3f" stop-opacity=".07"/>
      <stop offset=".78" stop-color="#000" stop-opacity=".33"/>
      <stop offset=".93" stop-color="#000" stop-opacity=".52"/>
      <stop offset="1" stop-color="#000" stop-opacity=".65"/>
    </radialGradient>
  </defs>
  <g id="Layer_1-2" data-name="Layer 1">
    <g>
      <path class="cls-11" d="m492.52,290.4c-42.67,75.27-144.17,98.24-226.7,51.3-82.53-46.94-114.84-146-72.17-221.27.37-.65.74-1.29,1.12-1.94,42.67-75.27,144.17-98.24,226.7-51.3,82.53,46.94,114.84,146,72.17,221.27-.37.65-.74,1.29-1.12,1.94Z"/>
      <path class="cls-3" d="m176.28,198.03c5.67,123.1,145.68,204.42,256.68,147.82-94.18-28.85-186.53-81.5-256.68-147.82Z"/>
      <path class="cls-4" d="m351.44,45.64c63.94,9.47,100.84,40.67,125.78,72.64,14.47,17.98,27.19,45.1,30.96,67.94-80.4-14.99-172.49-64.27-230.65-133.48,22.8-7.37,47.95-10.62,73.91-7.09h0Z"/>
      <path class="cls-1" d="m350.36,45.51c34.92,39.03,83.75,65.97,128.66,75.07-36.83-47.56-81.52-69.49-128.66-75.07Z"/>
      <path class="cls-5" d="m176.14,183.93c77.22,71.75,165.62,125.7,268.74,155.13-3.56,2.57-7.57,4.51-11.6,6.62-96.05-28.96-183.9-79.62-257.06-148.23-.27-5.57-.2-8.53-.08-13.51h0Z"/>
      <path class="cls-6" d="m222.45,85.1c66.97,74.02,197.13,152.33,285.13,164.75-.59,2.45-1.24,4.87-1.88,7.28-88.66-12.24-221.36-91.45-288.71-166.69,1.81-1.79,3.59-3.59,5.47-5.34h0Z"/>
      <path class="cls-7" d="m492.52,290.4c-42.67,75.27-144.17,98.24-226.7,51.3-82.53-46.94-114.84-146-72.17-221.27.37-.65.74-1.29,1.12-1.94,42.67-75.27,144.17-98.24,226.7-51.3,82.53,46.94,114.84,146,72.17,221.27-.37.65-.74,1.29-1.12,1.94Z"/>
      <g>
        <path class="cls-8" d="m241.31,70.3C115.02,10.23,17.2-16.13,2.02,10.17c-20.23,35.04,113.92,150.41,299.45,257.53s352.54,165.62,372.77,130.58c14.8-25.64-53.24-94.33-163.38-171.28-.04.57-.16,1.13-.2,1.7,105.87,74.36,171.03,140.48,156.7,165.31-19.79,34.27-183.13-22.94-364.57-127.69S-9.85,48.71,9.93,14.44c14.68-25.43,108.44-.42,229.92,56.93.5-.34.96-.74,1.46-1.07h0Z"/>
        <path class="cls-9" d="m239.49,71.65C119.05,14.89,26.18-9.83,11.61,15.41c-19.69,34.1,110.85,146.37,291.38,250.6,180.54,104.23,343.05,161.15,362.74,127.06,14.23-24.64-50.22-90.16-155.07-163.92-.25,2.95-.52,5.9-.95,8.83,85.23,61.89,136.22,115.68,124.1,136.66-17.77,30.77-164.42-20.61-327.34-114.67C143.56,165.91,25.76,64.6,43.52,33.83c12.46-21.58,88.41-2.65,188.81,42.96,2.33-1.82,4.74-3.49,7.16-5.15h0Z"/>
        <path class="cls-2" d="m217.5,90.14c-55.88-21.89-95.76-29.01-103.5-15.62-13.53,23.43,76.16,100.54,200.2,172.15s235.69,110.74,249.21,87.31c7.32-12.69-15.81-41.17-58.09-75.95-1.04,3.51-2.17,7.02-3.49,10.48,22.34,21.13,33.44,37.92,28.54,46.4-11.54,19.98-106.78-13.39-212.58-74.47S135.5,113.58,147.03,93.59c5.38-9.31,29.08-6.92,63.41,4.35,2.28-2.69,4.63-5.3,7.07-7.8h0Z"/>
        <path class="cls-10" d="m230.83,77.84C134.57,34.5,62.15,16.82,50.13,37.64c-17.37,30.08,97.78,129.12,257.05,221.07s302.64,142.17,320,112.09c11.66-20.2-36.6-71.54-117.68-130.91-.97,6.1-2.45,12.12-4.22,18.11,42.28,34.78,65.41,63.27,58.09,75.95-13.53,23.43-125.18-15.7-249.21-87.31S100.43,97.92,113.96,74.5c7.73-13.4,47.62-6.27,103.5,15.62,4.26-4.37,8.69-8.52,13.38-12.27h0Z"/>
      </g>
    </g>
  </g>
</svg>